# xmcd
#
# Track frame offsets: 
#        150
#        23775
#        43725
#        63187
#        84150
#        107675
#        124700
#        134775
#        157500
#        175800
#        199687
#        215025
#        232650
#        249675
#
# Disc length: 3643 seconds
#
# Revision: 4
# Processed by: cddbd v1.5.2PL0 Copyright (c) Steve Scherf et al.
# Submitted via: ExactAudioCopyFreeDBPlugin 1.0
#
DISCID=b30e390e
DTITLE=Various Artist - Mr Bluesman - soundtrack cd1
DYEAR=1993
DGENRE=Blues
TTITLE0=B.B. King - The Blues Come Over Me
TTITLE1=Robert Cray - Just A Loser
TTITLE2=Taj Mahal - Don't Call Us
TTITLE3=Joe Cocker - Now That The Magic Has Gone
TTITLE4=Tony Joe White - (You're Gonna Look) Good In Blues
TTITLE5=Little Village - Solar Sex Panel
TTITLE6=Dr. Feelgood - No Mo Do Yakomo
TTITLE7=Robert Plant - Big Log
TTITLE8=Delbert McClinton - Blues As Blues Can Get
TTITLE9=David Lee Roth - Tell The Truth
TTITLE10=Georgia Satellites - Keep Your Hands To Yourself
TTITLE11=Alvin Lee - A Little Bit Of Love
TTITLE12=Nine Below Zero - Soft Touch
TTITLE13=Kingdom Come - What Love Can Be
EXTD=
EXTT0=
EXTT1=
EXTT2=
EXTT3=
EXTT4=
EXTT5=
EXTT6=
EXTT7=
EXTT8=
EXTT9=
EXTT10=
EXTT11=
EXTT12=
EXTT13=
PLAYORDER=
